<?xml version="1.0" encoding="utf-8"?>
<!-- Generator: Adobe Illustrator 24.1.0, SVG Export Plug-In . SVG Version: 6.00 Build 0)  -->
<svg version="1.1" id="Ebene_1" xmlns="http://www.w3.org/2000/svg" xmlns:xlink="http://www.w3.org/1999/xlink" x="0px" y="0px"
	 width="229.61px" height="110.55px" viewBox="0 0 229.61 110.55" style="enable-background:new 0 0 229.61 110.55;"
	 xml:space="preserve">
<style type="text/css">
	.st0{fill:#009FE3;}
</style>
<g>
	<g>
		<path d="M70.18,27.22c0-5.1,1.48-6.81,7.06-6.81h42.09c3.91,0,6.16,1.69,6.16,5.34v7.53c0,2.55-0.75,3.55-4.06,3.55h-6.16
			c-2.7,0-3.76-0.67-3.76-2.55v-3.45c0-1.67-0.15-2-2.41-2H86.57c-2.26,0-2.56,0.78-2.56,2.44v5.44c0,2.11,0.45,3.88,1.66,5.44
			l4.35,6.11c1.81,2.66,1.96,4.33,1.96,5.77c0,0.22,0,0.45,0,0.67v16.1c0,2.44-1.66,3.55-4.96,3.55H75.3c-2.86,0-5.12-1.67-5.12-4
			V27.22z"/>
		<path d="M144.99,22.74V36.5c0,2.66,0.9,3.22,1.65,4.32l5.71,8.11c1.21,1.77,1.21,3.55,1.21,5.55V70.8c0,2.22-1.19,3.55-3.59,3.55
			h-14.39c-3.18,0-3.81-1.22-3.81-3.33V22.74c0-1.55,0.9-2.33,3.01-2.33h7.06C143.79,20.41,144.99,21.29,144.99,22.74z"/>
		<path d="M53.73,20.4H15.25V3.71c0-1.99,0.21-3.02-2.96-3.02h-7.7c-2.91,0-3.17,0.98-3.17,3.02l0.02,66.66
			c0,2.33,2.26,3.97,5.11,3.97h49.14c2.86,0,5.11-1.69,5.11-4.03V27.19C60.8,21.84,58.09,20.4,53.73,20.4z M23.23,65.36V54.05
			c0-1.44-0.15-3.11-1.95-5.77l-4.36-6.1c-0.91-1.17-1.39-2.47-1.57-3.94v-6.35c0.09-1.82,0.93-2.5,3.74-2.5h24.35
			c3.31,0,3.31,0.22,3.31,3.22v29.42c0,2.89-0.3,3.33-4.36,3.33H23.23z"/>
		<path d="M145.63,13.99c0,1.01-0.83,1.84-1.84,1.84H133.1c-1.01,0-1.84-0.83-1.84-1.84V3.3c0-1.01,0.83-1.84,1.84-1.84h10.69
			c1.01,0,1.84,0.83,1.84,1.84V13.99z"/>
		<g>
			<path class="st0" d="M193.64,54.7l-16.84,17.69c-1.46,1.54-2.46,1.92-5.23,1.92h-10.15c-1.92,0-2.62-2.15-1.15-3.69l22.92-23.38
				l-22.54-23.08c-1.46-1.54-0.77-3.69,1.15-3.69h10.54c2.77,0,3.77,0.38,5.23,1.92l16.46,17.38l16.54-17.38
				c1.46-1.54,2.46-1.92,5.23-1.92h10.15c1.92,0,2.62,2.15,1.15,3.69l-22.61,23.08l22.92,23.38c1.46,1.54,0.77,3.69-1.15,3.69
				h-10.54c-2.77,0-3.77-0.38-5.23-1.92L193.64,54.7z"/>
		</g>
	</g>
	<g>
		<g>
			<path d="M18.24,109.51V97.64c0-2.69-0.42-4.3-2.72-4.3c-2.62,0-3.53,2.62-3.53,5.17v11H9.99V97.64c0-2.37-0.24-4.3-2.69-4.3
				c-2.62,0-3.56,3.04-3.56,5.59v10.58H1.75V95.26c0-1.12-0.07-2.24-0.14-3.35h1.95l0.04,2.58c0.7-1.5,2.1-2.97,4.16-2.97
				c2.8,0,3.6,1.75,3.88,2.97c0.98-1.71,2.17-2.97,4.26-2.97c3.67,0,4.33,3,4.33,5.97v12.01H18.24z"/>
			<path d="M29.41,109.86c-5.1,0-5.73-3.53-5.73-8.97c0-5.13,0.63-9.36,5.97-9.36c5.31,0,5.66,3.88,5.66,9.29
				C35.31,106.61,34.3,109.86,29.41,109.86z M33.25,100.22c0-2.86,0.17-7.09-3.63-7.09c-4.02,0-3.88,4.37-3.88,7.16v2.03
				c0,2.69,0.1,5.94,3.74,5.94c3.42,0,3.77-3.11,3.77-5.87V100.22z"/>
			<path d="M44.95,93.51c-2.72,0-4.12,1.99-4.12,4.54v11.46h-1.99V95.12c0-1.08-0.07-2.17-0.14-3.21h1.92l0.03,2.34
				c0.94-1.68,2.55-2.73,4.4-2.73c0.11,0,0.28,0,0.42,0.04v1.99C45.3,93.51,45.12,93.51,44.95,93.51z"/>
			<path d="M48.75,101.02v1.01c0,3.91,0.59,6.21,3.74,6.21c3,0,3.6-1.85,3.7-4.12h1.99c-0.14,3.21-1.4,5.73-5.69,5.73
				c-4.99,0-5.8-3.7-5.8-8.17c0-4.68,0.04-10.17,6.01-10.17c4.51,0,5.59,3.11,5.59,7.2v2.3H48.75z M56.19,97.25
				c-0.14-2.13-0.98-4.12-3.46-4.12c-2.62,0-3.6,1.75-3.84,3.98c-0.07,0.77-0.11,1.54-0.11,2.3h7.44
				C56.23,98.96,56.23,97.95,56.19,97.25z"/>
			<path d="M72.88,109.65c-3.11,0-3.56-1.4-3.56-4.12V93.55H66.6v-1.64h2.73v-3.39l1.99-0.91v4.29h3.35v1.64h-3.35v11.84
				c0,2.2,0.63,2.48,2.06,2.48c0.38,0,0.91-0.07,1.29-0.14v1.78C74.07,109.58,73.48,109.65,72.88,109.65z"/>
			<path d="M86.29,109.51v-11c0-2.34,0.07-5.24-3.11-5.24c-3.04,0-4.09,2.76-4.09,5.8v10.44h-1.99V84.26h1.99v9.81
				c1.05-1.57,2.44-2.55,4.47-2.55c3.6,0,4.72,2.41,4.72,5.59v12.4H86.29z"/>
			<path d="M100.82,109.51v-2.44c-1.33,1.89-2.55,2.72-4.89,2.72c-3.11,0-4.64-2.2-4.64-5.13c0-5.48,5.03-5.83,9.36-5.87v-0.66
				c0-2.48,0-4.96-3.18-4.96c-1.68,0-3.39,0.84-3.39,2.83v0.14h-2.03v-0.11c0-3.14,2.48-4.51,5.48-4.51c4.09,0,5.1,2.03,5.1,5.83
				v6.64c0,1.85,0.04,3.67,0.11,5.52H100.82z M100.64,100.39h-0.66c-2.97,0-6.57,0.35-6.57,4.05c0,1.92,0.8,3.7,2.97,3.7
				c3.32,0,4.26-2.97,4.26-5.62V100.39z"/>
			<path d="M116.01,109.51V98.54c0-2.34,0.07-5.27-3.11-5.27c-3.25,0-4.09,3.11-4.09,5.9v10.34h-1.99V96.27
				c0-1.43-0.04-2.94-0.14-4.37h1.92l0.03,2.41c1.05-1.71,2.55-2.8,4.65-2.8c3.53,0,4.72,2.38,4.72,5.55v12.43H116.01z"/>
			<path d="M132.7,109.86c-3.6,0-4.93-2.03-4.93-5.17v-0.42h1.99v0.42c0,2.27,0.84,3.56,2.93,3.56c1.96,0,3.04-1.08,3.04-3.04
				c0-2.03-0.84-2.87-3.04-4.05l-1.4-0.77c-1.78-0.98-3.04-2.2-3.04-4.47c0-2.9,1.96-4.4,4.75-4.4c3.25,0,4.65,1.68,4.65,4.93v0.18
				h-1.99V96.2c0-1.92-0.8-3.04-2.8-3.04c-1.67,0-2.62,1.12-2.62,2.69c0,1.54,1.08,2.41,2.44,3.18l1.33,0.77
				c1.89,1.05,3.74,2.3,3.74,5.03C137.76,108.15,136.01,109.86,132.7,109.86z"/>
			<path d="M145.97,109.86c-5.1,0-5.73-3.53-5.73-8.97c0-5.13,0.63-9.36,5.97-9.36c5.31,0,5.66,3.88,5.66,9.29
				C151.87,106.61,150.85,109.86,145.97,109.86z M149.81,100.22c0-2.86,0.17-7.09-3.63-7.09c-4.02,0-3.88,4.37-3.88,7.16v2.03
				c0,2.69,0.1,5.94,3.74,5.94c3.42,0,3.77-3.11,3.77-5.87V100.22z"/>
			<path d="M158.33,93.55v15.96h-1.99V93.55h-2.69v-1.64h2.69v-1.92c0-3.07,0.21-5.9,4.36-5.9c0.35,0,0.73,0.03,1.01,0.07v1.74
				c-0.25-0.03-0.45-0.03-0.7-0.03c-2.13,0-2.69,0.84-2.69,3.18v2.86h3.39v1.64H158.33z"/>
			<path d="M168.28,109.65c-3.11,0-3.56-1.4-3.56-4.12V93.55h-2.73v-1.64h2.73v-3.39l1.99-0.91v4.29h3.35v1.64h-3.35v11.84
				c0,2.2,0.63,2.48,2.06,2.48c0.38,0,0.91-0.07,1.29-0.14v1.78C169.47,109.58,168.87,109.65,168.28,109.65z"/>
			<path d="M187.59,109.51h-2.51l-3.74-14.98l-3.49,14.98h-2.52l-4.61-17.6h2.1l3.84,15.65l3.56-15.65h2.44l3.81,15.65l3.7-15.65
				h1.99L187.59,109.51z"/>
			<path d="M202.67,109.51v-2.44c-1.33,1.89-2.55,2.72-4.89,2.72c-3.11,0-4.64-2.2-4.64-5.13c0-5.48,5.03-5.83,9.36-5.87v-0.66
				c0-2.48,0-4.96-3.18-4.96c-1.68,0-3.39,0.84-3.39,2.83v0.14h-2.03v-0.11c0-3.14,2.48-4.51,5.48-4.51c4.09,0,5.1,2.03,5.1,5.83
				v6.64c0,1.85,0.04,3.67,0.11,5.52H202.67z M202.5,100.39h-0.66c-2.97,0-6.57,0.35-6.57,4.05c0,1.92,0.8,3.7,2.97,3.7
				c3.32,0,4.26-2.97,4.26-5.62V100.39z"/>
			<path d="M214.79,93.51c-2.72,0-4.12,1.99-4.12,4.54v11.46h-1.99V95.12c0-1.08-0.07-2.17-0.14-3.21h1.92l0.03,2.34
				c0.94-1.68,2.55-2.73,4.4-2.73c0.11,0,0.28,0,0.42,0.04v1.99C215.14,93.51,214.96,93.51,214.79,93.51z"/>
			<path d="M218.6,101.02v1.01c0,3.91,0.59,6.21,3.74,6.21c3,0,3.6-1.85,3.7-4.12h1.99c-0.14,3.21-1.4,5.73-5.69,5.73
				c-4.99,0-5.8-3.7-5.8-8.17c0-4.68,0.04-10.17,6.01-10.17c4.51,0,5.59,3.11,5.59,7.2v2.3H218.6z M226.03,97.25
				c-0.14-2.13-0.98-4.12-3.46-4.12c-2.62,0-3.6,1.75-3.84,3.98c-0.07,0.77-0.11,1.54-0.11,2.3h7.44
				C226.07,98.96,226.07,97.95,226.03,97.25z"/>
		</g>
	</g>
</g>
</svg>
